Coordinates
version=1
nRows=10
nColumns=63
inDegrees=yes

Units are S.I. units (second, meters, Newtons, ...)
If the header above contains a line with 'inDegrees', this indicates whether rotational values are in degrees (yes) or radians (no).

endheader
time	pelvis_tilt	pelvis_list	pelvis_rotation	pelvis_tx	pelvis_ty	pelvis_tz	hip_flexion_r	hip_adduction_r	hip_rotation_r	knee_angle_r	knee_angle_r_beta	ankle_angle_r	subtalar_angle_r	mtp_angle_r	hip_flexion_l	hip_adduction_l	hip_rotation_l	knee_angle_l	knee_angle_l_beta	ankle_angle_l	subtalar_angle_l	mtp_angle_l	L5_S1_Flex_Ext	L5_S1_Lat_Bending	L5_S1_axial_rotation	L4_L5_Flex_Ext	L4_L5_Lat_Bending	L4_L5_axial_rotation	L3_L4_Flex_Ext	L3_L4_Lat_Bending	L3_L4_axial_rotation	L2_L3_Flex_Ext	L2_L3_Lat_Bending	L2_L3_axial_rotation	L1_L2_Flex_Ext	L1_L2_Lat_Bending	L1_L2_axial_rotation	L1_T12_Flex_Ext	L1_T12_Lat_Bending	L1_T12_axial_rotation	Abs_r3	Abs_r2	Abs_r1	Abs_t1	Abs_t2	neck_flexion	neck_bending	neck_rotation	arm_flex_r	arm_add_r	arm_rot_r	elbow_flex_r	pro_sup_r	wrist_flex_r	wrist_dev_r	arm_flex_l	arm_add_l	arm_rot_l	elbow_flex_l	pro_sup_l	wrist_flex_l	wrist_dev_l
0.000000	2.612717	-5.829940	100.017000	0.263345	0.888704	0.532378	-1.786643	1.765716	-9.472723	5.934552	0.103577	28.626665	-0.153787	0.000000	-0.855589	-3.867827	9.258662	0.927651	0.016191	29.462795	0.792460	0.000000	0.146575	0.005587	-0.584432	0.272204	0.007431	-0.620959	0.240808	0.013585	-0.620959	0.167520	0.013585	-0.511378	0.136109	0.011393	-0.474851	0.083753	0.008655	-0.438324	1.046970	0.063203	-3.250437	0.000000	0.000000	27.670349	2.836269	2.454902	5.179053	-26.413363	47.773698	93.145681	65.466681	5.489542	2.881025	10.077078	-35.761885	54.389465	92.888549	67.141360	20.205401	-6.796118
0.016949	2.496811	-5.570654	99.562370	0.264074	0.888778	0.529818	-2.333048	1.648156	-10.425188	5.755476	0.100452	29.187200	1.916914	0.000000	-1.403951	-3.759556	8.790116	1.007936	0.017592	29.660586	0.720357	0.000000	0.152167	-0.015057	-0.489925	0.282589	-0.020026	-0.520546	0.249995	-0.036611	-0.520546	0.173911	-0.036611	-0.428685	0.141302	-0.030705	-0.398064	0.086948	-0.023324	-0.367444	1.086911	-0.170333	-2.724818	0.000000	0.000000	27.722983	2.755857	2.218146	4.588147	-25.569413	46.441326	93.468526	64.402574	4.739614	3.682358	9.216269	-36.069048	53.472891	93.303048	68.073467	21.808343	-6.158774
0.033898	2.377351	-5.363367	99.000059	0.264949	0.888836	0.527838	-2.722365	1.508069	-11.152229	5.680680	0.099147	29.710043	3.793915	0.000000	-1.844586	-3.640328	8.072846	1.128455	0.019695	29.883263	0.812871	0.000000	0.155927	-0.033411	-0.379926	0.289572	-0.044436	-0.403671	0.256172	-0.081234	-0.403671	0.178209	-0.081234	-0.332435	0.144794	-0.068131	-0.308690	0.089097	-0.051753	-0.284944	1.113769	-0.377946	-2.113033	0.000000	0.000000	27.764693	2.720855	2.021110	4.126402	-24.878350	45.352624	93.723209	63.558746	4.149509	4.343353	8.817755	-36.412686	53.121015	93.658439	69.007234	22.718047	-5.925306
0.050847	2.255685	-5.204207	98.346333	0.265947	0.888880	0.526385	-2.969697	1.349890	-11.669275	5.697353	0.099438	30.193497	5.478743	0.000000	-2.186444	-3.512515	7.143127	1.283132	0.022395	30.125287	1.047739	0.000000	0.158110	-0.049575	-0.256932	0.293626	-0.065934	-0.272990	0.259759	-0.120535	-0.272990	0.180704	-0.120535	-0.224815	0.146821	-0.101092	-0.208757	0.090344	-0.076791	-0.192699	1.129363	-0.560797	-1.428978	0.000000	0.000000	27.796793	2.725663	1.860441	3.780680	-24.328036	44.487561	93.917295	62.920654	3.705180	4.875378	8.821566	-36.783827	53.259191	93.959081	69.928370	23.019776	-6.042402
0.067797	2.133164	-5.089306	97.617458	0.267046	0.888912	0.525404	-3.090149	1.178059	-11.991754	5.792685	0.101101	30.635866	6.972930	0.000000	-2.438477	-3.378489	6.037232	1.465889	0.025585	30.381117	1.402700	0.000000	0.158970	-0.063652	-0.123442	0.295224	-0.084657	-0.131157	0.261173	-0.154764	-0.131157	0.181687	-0.154764	-0.108012	0.147620	-0.129799	-0.100296	0.090836	-0.098597	-0.092581	1.135510	-0.720046	-0.686546	0.000000	0.000000	27.820595	2.764685	1.732786	3.537842	-23.906334	43.826111	94.058349	62.473753	3.392580	5.289804	9.167727	-37.173495	53.812776	94.209331	70.822582	22.798795	-6.456747
0.084746	2.011135	-5.014791	96.829699	0.268224	0.888934	0.524843	-3.098825	0.997010	-12.135097	5.953867	0.103915	31.035454	8.278005	0.000000	-2.609636	-3.240624	4.791434	1.670652	0.029158	30.645213	1.855489	0.000000	0.158763	-0.075746	0.018046	0.294840	-0.100742	0.019174	0.260832	-0.184169	0.019174	0.181451	-0.184169	0.015790	0.147428	-0.154461	0.014663	0.090717	-0.117331	0.013535	1.134031	-0.856854	0.100368	0.000000	0.000000	27.837414	2.832322	1.634792	3.384752	-23.601104	43.348245	94.153939	62.203501	3.197662	5.598003	9.796266	-37.572718	54.707123	94.413547	71.675577	22.140366	-7.115029
0.101695	1.890948	-4.976791	95.999322	0.269459	0.888946	0.524647	-3.010829	0.811181	-12.114734	6.168088	0.107653	31.390565	9.395498	0.000000	-2.708871	-3.101290	3.442009	1.891342	0.033010	30.912037	2.383845	0.000000	0.157743	-0.085959	0.165034	0.292945	-0.114325	0.175348	0.259156	-0.209000	0.175348	0.180285	-0.209000	0.144405	0.146480	-0.175287	0.134090	0.090134	-0.133150	0.123775	1.126744	-0.972382	0.917869	0.000000	0.000000	27.848561	2.922976	1.563107	3.308271	-23.400211	43.033934	94.211629	62.095355	3.106379	5.811343	10.647212	-37.972520	55.867589	94.576087	72.473064	21.129753	-7.963936
0.118644	1.773953	-4.971437	95.142593	0.270729	0.888952	0.524763	-2.841264	0.625010	-11.946093	6.422537	0.112094	31.699500	10.326938	0.000000	-2.745134	-2.962860	2.025229	2.121884	0.037034	31.176048	2.965504	0.000000	0.156164	-0.094393	0.315023	0.290013	-0.125543	0.334712	0.256562	-0.229507	0.334712	0.178480	-0.229507	0.275645	0.145014	-0.192486	0.255956	0.089232	-0.146215	0.236267	1.115466	-1.067792	1.752063	0.000000	0.000000	27.855350	3.031049	1.514376	3.295260	-23.291515	42.863150	94.238985	62.134770	3.104684	5.941197	11.660590	-38.363927	57.219527	94.701308	73.200751	19.852220	-8.950154
0.135593	1.661497	-4.994857	94.275778	0.272011	0.888952	0.525136	-2.605235	0.442933	-11.644605	6.704405	0.117014	31.960565	11.073857	0.000000	-2.727375	-2.827707	0.577368	2.356200	0.041123	31.431705	3.578205	0.000000	0.154282	-0.101151	0.465515	0.286516	-0.134531	0.494610	0.253469	-0.245940	0.494610	0.176328	-0.245940	0.407326	0.143266	-0.206268	0.378231	0.088157	-0.156684	0.349136	1.102018	-1.144245	2.589056	0.000000	0.000000	27.859094	3.150944	1.485247	3.332583	-23.262880	42.815864	94.243573	62.307203	3.178531	5.998933	12.776430	-38.737966	58.688293	94.793568	73.844344	18.393030	-10.020371
0.152542	1.554930	-5.043181	93.415142	0.273284	0.888949	0.525715	-2.317846	0.269387	-11.225699	7.000882	0.122188	32.172063	11.637783	0.000000	-2.664546	-2.698203	-0.865300	2.588215	0.045173	31.673470	4.199685	0.000000	0.152350	-0.106337	0.614012	0.282928	-0.141428	0.652388	0.250295	-0.258547	0.652388	0.174120	-0.258547	0.537261	0.141472	-0.216842	0.498885	0.087053	-0.164715	0.460509	1.088218	-1.202901	3.414952	0.000000	0.000000	27.861107	3.277061	1.472368	3.407100	-23.302166	42.872049	94.232959	62.598112	3.313872	5.995924	13.934759	-39.085662	60.199243	94.857226	74.389553	16.837447	-11.121273
